PathFileType	4	(X/Y/Z)	C:\Users\Basilio\Documents\Thesis Gigler\squatting_fais\c3dfiles\019\SLS_back_pre3\markers_experimental.trc
DataRate	CameraRate	NumFrames	NumMarkers	Units	OrigDataRate	OrigDataStartFrame	OrigNumFrames
200.000000	200.000000	4	59	mm	200.000000	1164	1552
Frame#	Time	LBHD			RBHD			C7			T10			CLAV			LSHO			LUUPA			LMUPA			LDUPA			LLEP			LMEP			LRAD			LUL			LRFIN			RSHO			RUPA1			RMUPA			RDUPA			RLEP			RMEP			RRAD			RUL			RUFIN			LASI			RASI			USACR			LSACR			RSACR			LTHI1			LTHI2			LTHI3			LTHI4			LLFC			LTIB1			LTIB2			LTIB3			LTIB4			LLMAL			LMMAL			LHEE			LMT2			LMT5			RTHI			RTHI2			RTHI4			RLFC			RTIB1			RTIB2			RTIB3			RTIB4			RLMAL			RMMAL			RHEE			RMT1			RMT2			RMT5			FHD			LMT1			RTHI3			
		X1	Y1	Z1	X2	Y2	Z2	X3	Y3	Z3	X4	Y4	Z4	X5	Y5	Z5	X6	Y6	Z6	X7	Y7	Z7	X8	Y8	Z8	X9	Y9	Z9	X10	Y10	Z10	X11	Y11	Z11	X12	Y12	Z12	X13	Y13	Z13	X14	Y14	Z14	X15	Y15	Z15	X16	Y16	Z16	X17	Y17	Z17	X18	Y18	Z18	X19	Y19	Z19	X20	Y20	Z20	X21	Y21	Z21	X22	Y22	Z22	X23	Y23	Z23	X24	Y24	Z24	X25	Y25	Z25	X26	Y26	Z26	X27	Y27	Z27	X28	Y28	Z28	X29	Y29	Z29	X30	Y30	Z30	X31	Y31	Z31	X32	Y32	Z32	X33	Y33	Z33	X34	Y34	Z34	X35	Y35	Z35	X36	Y36	Z36	X37	Y37	Z37	X38	Y38	Z38	X39	Y39	Z39	X40	Y40	Z40	X41	Y41	Z41	X42	Y42	Z42	X43	Y43	Z43	X44	Y44	Z44	X45	Y45	Z45	X46	Y46	Z46	X47	Y47	Z47	X48	Y48	Z48	X49	Y49	Z49	X50	Y50	Z50	X51	Y51	Z51	X52	Y52	Z52	X53	Y53	Z53	X54	Y54	Z54	X55	Y55	Z55	X56	Y56	Z56	X57	Y57	Z57	X58	Y58	Z58	X59	Y59	Z59	

1165	5.82	-370.2130737304688	1687.964965820313	-833.7713623046877	-378.4260864257813	1683.023193359375	-694.0076904296876	-400.9256896972657	1511.42822265625	-748.2947387695314	-434.6226501464845	1220.419799804688	-724.1670532226564	-259.8220214843751	1469.726684570313	-751.6444702148439	-315.2997741699219	1510.875122070313	-890.5018310546877	-188.8855133056641	1456.791259765625	-944.3296508789065	-162.7799072265625	1459.674682617188	-902.9168090820315	-123.3500442504883	1445.833129882813	-946.739685058594	-57.6891326904297	1395.474243164063	-967.8312988281252	-65.3872528076172	1346.095581054688	-935.3530273437502	183.7179565429688	1420.77783203125	-890.3037109375002	189.0111541748047	1372.208862304688	-934.4737548828127	257.1964416503907	1437.444458007813	-895.203796386719	-305.7061462402344	1513.408203125	-621.1398315429689	-194.503890991211	1424.621337890625	-516.9807128906251	-163.4899597167969	1452.255493164063	-545.6815185546876	-128.296142578125	1412.55615234375	-516.3679199218751	-51.40167236328126	1396.00830078125	-525.8274536132814	-65.3344192504883	1345.685913085938	-540.2056884765626	186.1841735839844	1432.032470703125	-592.0903930664064	201.1982727050782	1376.317504882813	-547.0798950195314	271.6510620117188	1441.772827148438	-577.6383666992189	-301.4265136718751	1018.752685546875	-859.0379638671877	-267.8922119140626	998.7857055664065	-654.9503784179689	-439.9431152343751	1088.936401367188	-725.4021606445314	-451.0579833984376	1059.262817382813	-754.6513061523439	-439.0286560058595	1055.672241210938	-698.1716308593751	-313.3263549804688	773.426696777344	-949.2758789062502	-255.9207000732422	711.5526733398439	-961.764343261719	-211.1366424560547	726.2454833984376	-947.8820800781252	-264.0156555175782	650.9688720703126	-954.5106201171877	-252.3168029785157	566.6015014648439	-944.7061157226565	-314.8960266113282	445.4597473144532	-901.933776855469	-385.8535461425782	468.2532043457032	-949.046813964844	-367.5202026367188	437.1399841308595	-925.0161743164065	-435.2272338867189	405.9248962402345	-879.3850097656252	-584.8269653320314	402.9544982910157	-890.1983642578127	-555.8826904296876	397.0518188476564	-808.054626464844	-641.5896606445314	443.5882873535157	-835.063659667969	-569.7368164062501	237.7425079345704	-843.3360595703127	-614.8331909179689	262.1252441406251	-890.9201660156252	-306.4359436035157	794.213562011719	-590.8344726562501	-265.6173095703126	744.3820800781251	-607.4575195312501	-288.2573852539063	666.3651733398439	-609.4566650390626	-322.2442626953126	508.6061401367189	-649.5490722656251	-294.2778320312501	332.8194274902344	-729.0333862304689	-341.7420349121094	249.6098022460938	-673.5863647460939	-311.6899719238282	248.8850402832032	-710.6785278320314	-330.8370971679688	211.9131622314454	-752.1885375976564	-390.0814514160157	126.9843673706055	-708.5222167968751	-379.4938659667969	133.9084625244141	-784.0140380859377	-456.7123413085939	106.0279235839844	-755.6313476562501	-258.4027709960938	54.05848693847658	-785.3645019531252	-249.2952575683594	55.72358322143556	-742.1199951171876	-291.3560791015626	51.11127853393556	-685.5686645507814	-246.5856170654297	1720.376708984375	-686.7352294921876	-559.5394287109376	242.1257781982422	-806.1213378906252	-244.1404876708985	754.0033569335939	-632.8165283203126	
1166	5.825	-370.9073791503907	1687.855102539063	-834.2195434570315	-379.4178161621094	1683.076049804688	-694.4736938476564	-401.685028076172	1511.330200195313	-748.7182617187501	-434.7961425781251	1220.277587890625	-724.4202880859376	-260.4602966308594	1469.853637695313	-751.9544067382814	-316.1663818359376	1510.916381835938	-891.1736450195315	-189.3918914794922	1456.798583984375	-944.6086425781252	-163.2795562744141	1459.716674804688	-903.1859130859377	-123.7830123901367	1445.869506835938	-946.9260253906252	-58.19691848754884	1395.512939453125	-967.9932250976565	-65.79882049560548	1346.211181640625	-935.4331054687502	183.2982025146485	1420.991821289063	-890.3818969726565	188.555908203125	1372.505004882813	-934.5623168945315	256.8320312500001	1437.712158203125	-895.3132324218752	-306.8302001953126	1513.412109375	-621.5816040039064	-195.371078491211	1424.862426757813	-517.1116333007814	-164.3181457519532	1452.448486328125	-545.6937866210939	-129.2476806640625	1412.743530273438	-516.3192749023439	-52.2849807739258	1396.1904296875	-525.6204833984376	-66.26671600341798	1346.044799804688	-539.8787231445314	185.2157440185547	1432.492553710938	-591.5248413085939	200.4174346923829	1376.661987304688	-546.7163696289064	271.1069946289063	1442.125	-577.1664428710939	-301.3689575195313	1018.642395019531	-859.1722412109377	-267.8328552246094	998.8341064453127	-655.0301513671876	-439.9136657714845	1088.869262695313	-725.5891113281251	-451.0052490234376	1059.251220703125	-754.7984619140626	-438.9343261718751	1055.6123046875	-698.2832641601564	-313.1538391113282	773.3284912109377	-949.1876220703127	-255.6953735351563	711.3834228515626	-961.5618896484377	-211.0626373291016	726.0886840820314	-947.6921386718752	-263.8338928222657	650.8448486328126	-954.3326416015627	-252.1917266845704	566.4238891601564	-944.5319824218752	-314.9244995117188	444.9481811523439	-902.1674804687502	-385.8448181152345	468.1094665527345	-949.038024902344	-367.5478515625001	436.9675292968751	-925.0342407226565	-435.2749023437501	405.8054504394532	-879.4766845703127	-585.0350952148439	402.952850341797	-890.494567871094	-555.9477539062501	396.9698791503907	-808.2824707031252	-641.6648559570314	443.5156860351564	-835.3840942382815	-569.9867553710939	237.5652313232422	-843.6374511718752	-615.0204467773439	262.0825500488282	-891.2467041015627	-306.3411865234376	794.3928222656252	-590.9381103515626	-265.5393066406251	744.4221801757814	-607.5801391601564	-288.3099365234376	666.4086303710939	-609.4498291015626	-322.4112548828126	508.6904602050782	-649.5041503906251	-294.3047790527344	332.8596191406251	-728.9897460937501	-341.6904602050782	249.6179199218751	-673.5379638671876	-311.7842102050782	248.8704986572266	-710.6269531250001	-330.8719482421876	211.9730377197266	-752.1370849609376	-390.0973510742189	127.0419387817383	-708.5381469726564	-379.5533142089844	133.8914642333985	-783.9672851562502	-456.7124938964845	106.0249938964844	-755.6300048828126	-258.5063476562501	54.06262588500978	-785.3619384765627	-249.2946929931641	55.66611862182619	-742.0808105468751	-291.3462524414063	51.10222244262697	-685.5711669921876	-247.5061645507813	1720.55908203125	-686.9783935546876	-559.7683105468751	241.9313964843751	-806.373962402344	-243.9507598876954	754.0740966796876	-632.9271850585939	
1167	5.83	-372.2512512207032	1687.900024414063	-834.9118652343752	-380.3125610351563	1682.700439453125	-695.0725708007814	-402.2494201660157	1511.170043945313	-749.1589355468751	-435.0277709960939	1220.135620117188	-724.7034912109376	-261.0389099121094	1470.003784179688	-752.2219238281251	-316.7597045898438	1510.8701171875	-891.4927368164065	-189.9902954101563	1456.7900390625	-944.895690917969	-163.743392944336	1459.750122070313	-903.3886718750002	-124.3261871337891	1445.918212890625	-947.1492919921877	-58.5769500732422	1395.57470703125	-968.153991699219	-66.14893341064455	1346.284912109375	-935.6011352539065	182.8027038574219	1421.18310546875	-890.4788818359377	188.1771087646485	1372.679443359375	-934.7590332031252	256.3392028808594	1437.91064453125	-895.4154052734377	-307.2996826171876	1513.7041015625	-621.6399536132814	-196.3180541992188	1424.942504882813	-516.9910888671876	-165.4849090576172	1452.734008789063	-545.7838745117189	-130.087875366211	1412.939819335938	-516.1997680664064	-53.09541702270509	1396.386108398438	-525.5823974609376	-67.13911437988283	1346.156372070313	-539.7158813476564	184.3989868164063	1432.871459960938	-591.0079345703126	199.3977966308594	1376.643188476563	-546.4633789062501	267.1520385742188	1443.381469726563	-574.5346679687501	-301.2712402343751	1018.612854003906	-859.2332153320315	-267.7197570800782	998.8756103515627	-655.1602783203126	-439.8641967773439	1088.9140625	-725.7338867187501	-450.9080810546876	1059.21484375	-754.8742675781251	-438.9365844726564	1055.599731445313	-698.4091796875001	-312.9322814941407	773.1539306640627	-949.1188964843752	-255.5054168701172	711.1788940429689	-961.4088134765627	-210.8847656250001	725.8930053710939	-947.3918457031252	-263.7554321289063	650.7377929687501	-954.201843261719	-252.0093688964844	566.2405395507814	-944.3001098632815	-314.9879455566407	444.8081970214845	-902.0838012695315	-385.8314514160157	467.9959106445314	-949.0159301757815	-367.5798950195313	436.8460083007814	-924.9400024414065	-435.3487854003907	405.6336975097657	-879.4686279296877	-584.9697875976564	402.8243103027345	-890.7534790039065	-556.2854614257814	396.9586181640626	-808.4628906250002	-641.8248291015626	443.4302062988282	-835.7224121093752	-570.1166992187501	237.546859741211	-843.868835449219	-615.1038208007814	262.0396118164063	-891.5083007812502	-306.2827148437501	794.4383544921877	-591.0685424804689	-265.4615478515626	744.4104614257814	-607.6488037109376	-288.2132568359376	666.4678955078126	-609.4816894531251	-322.6219177246094	508.5450744628907	-649.3697509765626	-294.3423461914063	332.8932189941407	-728.9387207031251	-341.7999877929688	249.7180633544922	-673.5123901367189	-311.7788391113282	248.9476165771485	-710.6091918945314	-330.8079528808594	211.9766235351563	-752.0662841796876	-390.0367431640626	127.0227355957032	-708.4389648437501	-379.5132446289063	133.944580078125	-784.057556152344	-456.7183227539064	106.0315093994141	-755.5665893554689	-258.4447631835938	54.01137924194337	-785.3450927734377	-249.3140258789063	55.61740493774415	-742.0505981445314	-291.2884826660157	51.08210372924806	-685.6147460937501	-248.6605834960938	1720.667724609375	-687.0838012695314	-560.0604858398439	242.0070037841797	-806.6470336914065	-243.8899078369141	754.0570068359376	-633.0498657226564	
1168	5.835	-373.0387268066407	1687.859008789063	-835.2542114257815	-381.2602539062501	1682.691040039063	-695.5684204101564	-402.9908142089845	1511.070068359375	-749.5513305664064	-435.1855468750001	1220.036743164063	-724.9327392578126	-261.5863952636719	1470.105224609375	-752.5025024414064	-318.1975402832032	1510.964233398438	-892.778015136719	-190.4460906982422	1456.753295898438	-945.142517089844	-164.2343444824219	1459.767822265625	-903.6262207031252	-124.8035278320313	1445.891479492188	-947.3665771484377	-59.04218673706056	1395.614624023438	-968.3354492187502	-66.58320617675783	1346.339599609375	-935.7067871093752	182.2935028076172	1421.392944335938	-890.7047119140627	187.7527160644532	1372.819213867188	-934.8966064453127	255.9319000244141	1438.1533203125	-895.5551757812502	-308.2680053710938	1513.698974609375	-622.0120849609376	-197.3119659423829	1425.146484375	-517.0601806640626	-166.2901306152344	1452.7861328125	-545.7744750976564	-131.1915893554688	1413.179565429688	-516.1431274414064	-54.08845138549806	1396.66455078125	-525.5761108398439	-67.88989257812501	1346.622924804688	-539.3978271484376	183.7728118896485	1433.324951171875	-589.6874389648439	198.2562255859376	1376.496704101563	-547.5963134765626	269.1981506347657	1443.154052734375	-575.8006591796876	-301.1160278320313	1018.544006347656	-859.3428344726565	-267.6839294433594	998.9776611328127	-655.2545776367189	-439.9733886718751	1088.671875	-725.9357910156251	-450.9532775878907	1059.108032226563	-755.0216064453126	-438.9111328125001	1055.584716796875	-698.5713500976564	-312.7740478515626	773.0129394531252	-949.0695800781252	-255.3531646728516	711.0071411132814	-961.2237548828127	-210.7278289794922	725.7176513671876	-947.2077636718752	-263.6451721191407	650.5778198242189	-953.9981689453127	-252.0901947021485	566.1286621093751	-944.1189575195315	-315.0313110351563	444.6496887207032	-901.922302246094	-385.7547302246095	467.8337402343751	-949.0164184570315	-367.4882507324219	436.6897583007814	-924.8320922851565	-435.3939819335939	405.5219116210939	-879.4983520507815	-585.0916137695314	402.8297729492189	-890.9846801757815	-556.4230957031251	396.9007568359376	-808.6671142578127	-641.9943847656251	443.3850097656251	-836.037536621094	-568.1174926757814	239.2317657470704	-845.7913818359377	-615.0628662109376	261.9389038085938	-891.7442016601565	-306.1496887207032	794.4760742187502	-591.1151123046876	-265.4783020019532	744.2928466796876	-607.8657836914064	-288.2638854980469	666.5536499023439	-609.4888305664064	-322.6229858398438	508.4699096679689	-649.2083129882814	-294.3560180664063	332.9120483398438	-728.8980102539064	-341.8155517578126	249.6739807128907	-673.4792480468751	-311.8320922851563	248.9399719238282	-710.5195922851564	-330.8963317871094	212.0058746337891	-752.0608520507814	-390.143035888672	126.9790496826172	-708.3926391601564	-379.4702758789063	133.9423828125	-783.9514770507815	-456.7348022460939	106.0316696166992	-755.5618896484376	-258.3951110839844	54.0538902282715	-785.274353027344	-249.2673645019532	55.61785125732423	-741.9698486328126	-291.3292236328126	51.0846633911133	-685.5725097656251	-249.6993408203126	1720.996459960938	-687.8405151367189	-559.6455688476564	241.3629760742188	-807.8594970703127	-243.7074737548829	753.8331909179689	-633.1474609375001	
